<svg width="30" height="30" viewBox="0 0 30 30" fill="none" xmlns="http://www.w3.org/2000/svg">
<path d="M15 0C6.7152 0 0 6.7152 0 15C0 23.2848 6.7152 30 15 30C23.2848 30 30 23.2848 30 15C30 6.7152 23.2848 0 15 0ZM22.8 16.2H16.2V22.8C16.2 23.1183 16.0736 23.4235 15.8485 23.6485C15.6235 23.8736 15.3183 24 15 24C14.6817 24 14.3765 23.8736 14.1515 23.6485C13.9264 23.4235 13.8 23.1183 13.8 22.8V16.2H7.2C6.88174 16.2 6.57652 16.0736 6.35147 15.8485C6.12643 15.6235 6 15.3183 6 15C6 14.6817 6.12643 14.3765 6.35147 14.1515C6.57652 13.9264 6.88174 13.8 7.2 13.8H13.8V7.2C13.8 6.88174 13.9264 6.57652 14.1515 6.35147C14.3765 6.12643 14.6817 6 15 6C15.3183 6 15.6235 6.12643 15.8485 6.35147C16.0736 6.57652 16.2 6.88174 16.2 7.2V13.8H22.8C23.1183 13.8 23.4235 13.9264 23.6485 14.1515C23.8736 14.3765 24 14.6817 24 15C24 15.3183 23.8736 15.6235 23.6485 15.8485C23.4235 16.0736 23.1183 16.2 22.8 16.2Z" fill="white"/>
</svg>
