<svg width="165" height="185" viewBox="0 0 165 185" fill="none" xmlns="http://www.w3.org/2000/svg">
<g clip-path="url(#clip0_14_66)">
<path d="M92.2063 43.9629H91.1902V16.1167C91.1902 11.8423 89.493 7.74292 86.4718 4.72046C83.4506 1.698 79.3531 -4.14329e-06 75.0805 -9.53669e-06H16.1097C13.9942 -1.48778e-05 11.8993 0.416849 9.9448 1.22678C7.99028 2.03671 6.21436 3.22385 4.71843 4.72042C3.2225 6.21699 2.03586 7.99367 1.22626 9.94903C0.416669 11.9044 -2.58461e-05 14.0001 -3.05176e-05 16.1166V168.883C-3.25196e-05 171 0.416652 173.096 1.22624 175.051C2.03583 177.006 3.22247 178.783 4.71839 180.28C6.21432 181.776 7.99024 182.963 9.94477 183.773C11.8993 184.583 13.9941 185 16.1097 185H75.0804C79.353 185 83.4506 183.302 86.4717 180.28C89.4929 177.257 91.1902 173.158 91.1902 168.883V63.7843H92.2063V43.9629Z" fill="#E6E6E6"/>
<path d="M75.7305 4.193H68.0329C68.3869 5.06125 68.522 6.00327 68.4263 6.93608C68.3307 7.86888 68.0072 8.76384 67.4844 9.54211C66.9616 10.3204 66.2555 10.9581 65.4283 11.399C64.6011 11.84 63.6782 12.0707 62.7409 12.0707H28.9573C28.02 12.0707 27.0971 11.84 26.2699 11.399C25.4427 10.9581 24.7366 10.3204 24.2138 9.54211C23.691 8.76383 23.3675 7.86887 23.2719 6.93606C23.1763 6.00326 23.3114 5.06123 23.6654 4.19298H16.4758C13.2851 4.19298 10.225 5.46102 7.96887 7.71816C5.7127 9.97529 4.4452 13.0366 4.44519 16.2287V168.771C4.44519 171.963 5.71269 175.025 7.96886 177.282C10.225 179.539 13.285 180.807 16.4757 180.807H75.7305C77.3104 180.807 78.8748 180.496 80.3344 179.891C81.794 179.286 83.1203 178.399 84.2374 177.282C85.3545 176.164 86.2407 174.837 86.8453 173.377C87.4499 171.917 87.7611 170.352 87.7611 168.771V16.2287C87.7611 14.6482 87.4499 13.0831 86.8453 11.6228C86.2407 10.1626 85.3545 8.83579 84.2374 7.71817C83.1203 6.60055 81.794 5.71401 80.3344 5.10916C78.8748 4.50431 77.3104 4.193 75.7305 4.193Z" fill="white"/>
<path d="M82.8716 124.003H11.8234C11.4746 124.002 11.1402 123.864 10.8935 123.617C10.6469 123.37 10.5081 123.035 10.5077 122.687V105.055C10.5081 104.706 10.6469 104.372 10.8935 104.125C11.1402 103.878 11.4746 103.739 11.8234 103.739H82.8716C83.2204 103.739 83.5548 103.878 83.8015 104.125C84.0481 104.372 84.1869 104.706 84.1873 105.055V122.687C84.1868 123.036 84.048 123.37 83.8014 123.617C83.5547 123.864 83.2204 124.002 82.8716 124.003ZM11.8234 104.265C11.6141 104.265 11.4134 104.349 11.2654 104.497C11.1174 104.645 11.0341 104.846 11.0339 105.055V122.687C11.0341 122.896 11.1174 123.097 11.2654 123.245C11.4134 123.393 11.6141 123.476 11.8234 123.477H82.8716C83.0809 123.476 83.2816 123.393 83.4296 123.245C83.5776 123.097 83.6609 122.896 83.661 122.687V105.055C83.6609 104.846 83.5776 104.645 83.4296 104.497C83.2816 104.349 83.0809 104.265 82.8716 104.265H11.8234Z" fill="#E6E6E6"/>
<path d="M21.0331 119.399C24.085 119.399 26.559 116.924 26.559 113.871C26.559 110.817 24.085 108.342 21.0331 108.342C17.9812 108.342 15.5072 110.817 15.5072 113.871C15.5072 116.924 17.9812 119.399 21.0331 119.399Z" fill="#E6E6E6"/>
<path d="M33.7955 110.185C33.5539 110.189 33.3236 110.288 33.1541 110.46C32.9847 110.633 32.8897 110.865 32.8897 111.107C32.8897 111.348 32.9847 111.58 33.1541 111.753C33.3236 111.925 33.5539 112.024 33.7955 112.028H77.2138C77.458 112.033 77.6941 111.94 77.8702 111.771C78.0462 111.601 78.1478 111.369 78.1525 111.124C78.1572 110.88 78.0647 110.644 77.8953 110.468C77.7259 110.292 77.4936 110.19 77.2493 110.185L77.244 110.185C77.234 110.185 77.2239 110.185 77.2138 110.185H33.7955Z" fill="#E6E6E6"/>
<path d="M33.7955 115.714C33.5539 115.718 33.3236 115.816 33.1541 115.989C32.9847 116.161 32.8897 116.393 32.8897 116.635C32.8897 116.877 32.9847 117.109 33.1541 117.281C33.3236 117.453 33.5539 117.552 33.7955 117.556H77.2138C77.4576 117.56 77.6929 117.466 77.8679 117.296C78.043 117.126 78.1435 116.894 78.1475 116.65C78.1515 116.406 78.0587 116.171 77.8893 115.995C77.7199 115.819 77.4879 115.718 77.244 115.714C77.234 115.713 77.2239 115.713 77.2138 115.714H33.7955Z" fill="#E6E6E6"/>
<path d="M82.8716 153.487H11.8234C11.4746 153.487 11.1402 153.348 10.8935 153.101C10.6469 152.855 10.5081 152.52 10.5077 152.171V134.54C10.5081 134.191 10.6469 133.856 10.8935 133.609C11.1402 133.363 11.4746 133.224 11.8234 133.223H82.8716C83.2204 133.224 83.5548 133.363 83.8015 133.609C84.0481 133.856 84.1869 134.191 84.1873 134.54V152.171C84.1868 152.52 84.048 152.855 83.8014 153.101C83.5547 153.348 83.2204 153.487 82.8716 153.487ZM11.8234 133.75C11.6141 133.75 11.4134 133.833 11.2654 133.981C11.1174 134.129 11.0341 134.33 11.0339 134.54V152.171C11.0341 152.381 11.1174 152.581 11.2654 152.73C11.4134 152.878 11.6141 152.961 11.8234 152.961H82.8716C83.0809 152.961 83.2816 152.878 83.4296 152.73C83.5776 152.581 83.6609 152.381 83.661 152.171V134.54C83.6609 134.33 83.5776 134.129 83.4296 133.981C83.2816 133.833 83.0809 133.75 82.8716 133.75H11.8234Z" fill="#E6E6E6"/>
<path d="M21.0331 148.883C24.085 148.883 26.559 146.408 26.559 143.355C26.559 140.302 24.085 137.827 21.0331 137.827C17.9812 137.827 15.5072 140.302 15.5072 143.355C15.5072 146.408 17.9812 148.883 21.0331 148.883Z" fill="#E6E6E6"/>
<path d="M33.7955 139.67C33.5539 139.674 33.3236 139.773 33.1541 139.945C32.9847 140.117 32.8897 140.349 32.8897 140.591C32.8897 140.833 32.9847 141.065 33.1541 141.237C33.3236 141.41 33.5539 141.508 33.7955 141.512H77.2138C77.4576 141.516 77.6929 141.422 77.8679 141.252C78.043 141.083 78.1435 140.85 78.1475 140.606C78.1515 140.362 78.0587 140.127 77.8893 139.951C77.7199 139.776 77.4879 139.674 77.244 139.67C77.234 139.67 77.2239 139.67 77.2138 139.67H33.7955Z" fill="#E6E6E6"/>
<path d="M33.7955 145.198C33.5539 145.202 33.3236 145.301 33.1541 145.473C32.9847 145.646 32.8897 145.878 32.8897 146.119C32.8897 146.361 32.9847 146.593 33.1541 146.766C33.3236 146.938 33.5539 147.037 33.7955 147.041H77.2138C77.4576 147.044 77.6929 146.951 77.8679 146.781C78.043 146.611 78.1435 146.378 78.1475 146.134C78.1515 145.891 78.0587 145.655 77.8893 145.479C77.7199 145.304 77.4879 145.203 77.244 145.198C77.234 145.198 77.2239 145.198 77.2138 145.198H33.7955Z" fill="#E6E6E6"/>
<path d="M45.8523 87.4147C39.2251 87.4175 32.8682 84.7864 28.1801 80.1002C23.492 75.414 20.8567 69.0566 20.854 62.4265V62.4057C20.854 62.3533 20.854 62.2981 20.857 62.2458C20.9332 48.5498 32.1467 37.3964 45.8523 37.3964C52.4823 37.3956 58.841 40.0298 63.5296 44.7193C68.2182 49.4089 70.8527 55.7698 70.8535 62.4026C70.8542 69.0354 68.2212 75.3968 63.5336 80.0875C58.8461 84.7781 52.488 87.4137 45.858 87.4145H45.8523V87.4147ZM45.8523 37.9223C39.3914 37.9368 33.1972 40.5013 28.6156 45.0587C24.0339 49.616 21.435 55.7981 21.3835 62.2615C21.3807 62.3175 21.3807 62.3632 21.3807 62.4049C21.3801 67.2477 22.8149 71.9819 25.5038 76.0089C28.1927 80.0359 32.0148 83.1748 36.4868 85.0286C40.9588 86.8824 45.8799 87.3679 50.6277 86.4237C55.3756 85.4795 59.7369 83.148 63.1602 79.7241C66.5836 76.3001 68.9152 71.9375 69.8601 67.1879C70.8051 62.4382 70.321 57.5149 68.4691 53.0405C66.6172 48.5661 63.4806 44.7416 59.4561 42.0506C55.4315 39.3595 50.6996 37.9229 45.8589 37.9223H45.8523Z" fill="#E6E6E6"/>
<path d="M80.0671 117.654C85.6803 117.654 90.2306 113.101 90.2306 107.486C90.2306 101.87 85.6803 97.3178 80.0671 97.3178C74.4539 97.3178 69.9035 101.87 69.9035 107.486C69.9035 113.101 74.4539 117.654 80.0671 117.654Z" fill="white"/>
<path d="M76.5372 112.06C76.5198 112.06 76.5023 112.06 76.4848 112.06H71.0219C70.3287 112.049 69.6677 111.766 69.1813 111.272C68.6949 110.777 68.4221 110.112 68.4218 109.418C68.4215 108.725 68.6938 108.059 69.1798 107.564C69.6658 107.07 70.3266 106.786 71.0198 106.774H76.4873C76.5141 106.774 76.5433 106.774 76.5722 106.774C77.2695 106.784 77.9348 107.069 78.4229 107.567C78.9109 108.066 79.1823 108.737 79.1777 109.435C79.173 110.132 78.8929 110.8 78.3982 111.292C77.9036 111.784 77.2346 112.06 76.5372 112.06Z" fill="#6C63FF"/>
<path d="M165 184.381H82.6668V184.951H165V184.381Z" fill="#3F3D56"/>
<path d="M87.7395 136.182C87.6748 136.081 87.6212 135.974 87.5795 135.862L86.2675 132.347C86.1148 131.937 86.1311 131.482 86.3129 131.084C86.4946 130.685 86.8269 130.375 87.237 130.221L116.519 119.283C116.929 119.13 117.383 119.146 117.782 119.328C118.18 119.51 118.49 119.842 118.644 120.252L119.956 123.767C120.031 123.971 120.067 124.187 120.059 124.404C120.051 124.621 120.001 124.834 119.911 125.031C119.821 125.229 119.693 125.406 119.534 125.554C119.376 125.702 119.189 125.817 118.986 125.893L89.7045 136.832C89.3519 136.963 88.9651 136.971 88.6078 136.853C88.2505 136.734 87.9442 136.498 87.7395 136.182Z" fill="#6C63FF"/>
<path d="M116.426 118.374L104.518 123.125C104.143 123.238 103.826 123.491 103.632 123.831C103.438 124.172 103.383 124.575 103.478 124.955L104.86 130.49C104.915 130.709 105.017 130.913 105.16 131.087C105.302 131.261 105.482 131.402 105.686 131.498C105.889 131.595 106.111 131.645 106.337 131.646C106.562 131.646 106.785 131.596 106.988 131.5L118.929 125.878C119.307 125.736 119.614 125.45 119.781 125.082C119.949 124.714 119.965 124.295 119.824 123.916L118.389 119.271C118.247 118.891 117.961 118.584 117.593 118.416C117.224 118.248 116.805 118.233 116.426 118.374Z" fill="#2F2E41"/>
<path d="M138.217 152.859C137.843 152.902 137.466 152.816 137.147 152.616C136.829 152.415 136.588 152.112 136.466 151.756L126.273 122.196C126.202 121.99 126.173 121.773 126.186 121.557C126.199 121.34 126.254 121.128 126.349 120.933C126.444 120.738 126.577 120.564 126.739 120.42C126.902 120.276 127.091 120.166 127.296 120.095L130.841 118.871C131.255 118.729 131.709 118.756 132.102 118.948C132.496 119.14 132.798 119.48 132.941 119.895L143.133 149.455C143.276 149.87 143.248 150.323 143.056 150.717C142.864 151.111 142.524 151.413 142.111 151.556L138.565 152.779C138.452 152.818 138.336 152.845 138.217 152.859Z" fill="#6C63FF"/>
<path d="M133.7 119.389L137.612 131.602C137.764 131.963 137.771 132.369 137.631 132.735C137.491 133.102 137.216 133.4 136.863 133.569L131.715 136.023C131.511 136.12 131.289 136.171 131.064 136.172C130.838 136.173 130.616 136.123 130.412 136.028C130.208 135.932 130.028 135.792 129.884 135.619C129.74 135.445 129.637 135.242 129.581 135.023L126.321 122.23C126.19 121.848 126.216 121.429 126.393 121.066C126.569 120.702 126.883 120.424 127.264 120.291L131.76 118.443C132.143 118.312 132.562 118.337 132.926 118.515C133.29 118.692 133.568 119.006 133.7 119.389Z" fill="#2F2E41"/>
<path d="M121.856 184.549H118.106C117.668 184.548 117.248 184.374 116.939 184.064C116.629 183.755 116.455 183.335 116.454 182.897V151.626C116.455 151.188 116.629 150.768 116.939 150.459C117.248 150.149 117.668 149.975 118.106 149.974H121.856C122.294 149.975 122.714 150.149 123.023 150.459C123.333 150.768 123.507 151.188 123.508 151.626V182.897C123.507 183.335 123.333 183.755 123.023 184.064C122.714 184.374 122.294 184.548 121.856 184.549Z" fill="#2F2E41"/>
<path d="M129.274 184.549H125.523C125.085 184.548 124.666 184.374 124.356 184.064C124.046 183.755 123.872 183.335 123.872 182.897V151.626C123.872 151.188 124.046 150.768 124.356 150.459C124.666 150.149 125.085 149.975 125.523 149.974H129.274C129.711 149.975 130.131 150.149 130.441 150.459C130.75 150.768 130.925 151.188 130.925 151.626V182.897C130.925 183.335 130.75 183.755 130.441 184.064C130.131 184.374 129.711 184.548 129.274 184.549Z" fill="#2F2E41"/>
<path d="M132.364 155.303H115.324C114.853 155.302 114.401 155.114 114.067 154.781C113.734 154.447 113.546 153.995 113.546 153.523V125.83C113.546 123.097 114.631 120.477 116.562 118.545C118.493 116.612 121.113 115.527 123.844 115.527C126.576 115.527 129.195 116.612 131.126 118.545C133.058 120.477 134.143 123.097 134.143 125.83V153.523C134.142 153.995 133.955 154.447 133.621 154.781C133.288 155.114 132.836 155.302 132.364 155.303Z" fill="#CCCCCC"/>
<path d="M134.929 162.077H126.29V113.231L126.451 113.275C128.884 113.943 131.03 115.392 132.562 117.397C134.093 119.403 134.925 121.856 134.929 124.381V162.077Z" fill="#2F2E41"/>
<path d="M120.696 162.077H112.057V124.381C112.061 121.856 112.893 119.403 114.425 117.397C115.956 115.392 118.103 113.943 120.536 113.275L120.696 113.231V162.077Z" fill="#2F2E41"/>
<path d="M123.715 109.798C131.226 109.798 137.314 103.707 137.314 96.1939C137.314 88.6804 131.226 82.5894 123.715 82.5894C116.205 82.5894 110.117 88.6804 110.117 96.1939C110.117 103.707 116.205 109.798 123.715 109.798Z" fill="#6C63FF"/>
<path d="M139.09 93.0618C139.09 93.0618 139.852 71.9633 129.942 78.8267C129.942 78.8267 124.225 59.6347 110.25 88.3591L106.185 92.4263C106.185 92.4263 124.479 89.8843 141.503 97.7644L139.09 93.0618Z" fill="#2F2E41"/>
<path d="M123.923 102.931C123.083 102.908 122.037 102.879 121.232 102.29C120.992 102.108 120.795 101.875 120.655 101.608C120.514 101.342 120.434 101.048 120.419 100.747C120.404 100.533 120.439 100.318 120.521 100.12C120.603 99.922 120.73 99.7455 120.892 99.6044C121.312 99.2488 121.926 99.1655 122.588 99.3601L121.903 94.3459L122.406 94.2768L123.212 100.172L122.792 99.9787C122.304 99.755 121.635 99.6412 121.22 99.9927C121.117 100.085 121.038 100.199 120.987 100.326C120.936 100.454 120.916 100.592 120.927 100.729C120.939 100.953 120.999 101.172 121.104 101.37C121.208 101.569 121.354 101.743 121.532 101.88C122.158 102.338 122.992 102.397 123.937 102.423L123.923 102.931Z" fill="#2F2E41"/>
<path d="M119.413 94.7783H116.676V95.2867H119.413V94.7783Z" fill="#2F2E41"/>
<path d="M128.052 94.7783H125.315V95.2867H128.052V94.7783Z" fill="#2F2E41"/>
<path d="M93.3959 137.479C93.0291 137.649 92.6098 137.667 92.2301 137.528C91.8504 137.388 91.5415 137.104 91.3713 136.737L82.6024 117.829C82.4323 117.462 82.4149 117.043 82.5539 116.663C82.693 116.283 82.9771 115.974 83.3438 115.804C83.7106 115.633 84.1299 115.616 84.5096 115.755C84.8892 115.894 85.1981 116.178 85.3683 116.545L94.1372 135.453C94.3074 135.82 94.3249 136.24 94.1858 136.62C94.0468 137 93.7627 137.309 93.3959 137.479Z" fill="#3F3D56"/>
<path d="M84.3866 117.133C84.117 117.133 83.8585 117.026 83.6679 116.835C83.4773 116.645 83.3702 116.386 83.3702 116.116V103.164H70.6658C70.3962 103.164 70.1377 103.057 69.9471 102.867C69.7565 102.676 69.6494 102.417 69.6494 102.148C69.6494 101.878 69.7565 101.619 69.9471 101.429C70.1377 101.238 70.3962 101.131 70.6658 101.131H84.3866C84.6561 101.131 84.9147 101.238 85.1053 101.429C85.2959 101.619 85.403 101.878 85.403 102.148V116.116C85.403 116.386 85.2959 116.645 85.1053 116.835C84.9147 117.026 84.6561 117.133 84.3866 117.133Z" fill="#6C63FF"/>
<path d="M84.627 118.571C82.4388 119.586 79.9988 119.93 77.6153 119.558C75.2319 119.186 73.0122 118.116 71.2369 116.482C69.4616 114.848 68.2105 112.725 67.6416 110.379C67.0728 108.034 67.2119 105.573 68.0413 103.307C68.8707 101.041 70.3532 99.0717 72.3012 97.6485C74.2493 96.2253 76.5754 95.412 78.9855 95.3114C81.3956 95.2108 83.7814 95.8274 85.8412 97.0833C87.901 98.3392 89.5423 100.178 90.5575 102.367C91.9151 105.303 92.0531 108.658 90.9413 111.696C89.8295 114.733 87.5587 117.206 84.627 118.571ZM75.6442 99.2011C74.0031 99.9628 72.6246 101.194 71.6831 102.74C70.7416 104.285 70.2793 106.075 70.3547 107.884C70.4301 109.692 71.0399 111.438 72.1068 112.899C73.1738 114.361 74.65 115.473 76.3489 116.095C78.0477 116.718 79.8928 116.822 81.651 116.395C83.4091 115.969 85.0012 115.03 86.2261 113.698C87.4509 112.366 88.2534 110.7 88.532 108.912C88.8107 107.124 88.553 105.293 87.7916 103.651C86.7685 101.451 84.9149 99.7473 82.6376 98.9131C80.3604 98.0789 77.8453 98.1825 75.6442 99.2011Z" fill="#3F3D56"/>
</g>
<defs>
<clipPath id="clip0_14_66">
<rect width="165" height="185" fill="white"/>
</clipPath>
</defs>
</svg>
