<svg width="266" height="191" viewBox="0 0 266 191" fill="none" xmlns="http://www.w3.org/2000/svg">
<g clip-path="url(#clip0_14_36)">
<path d="M112.968 89.2117H5.45818C4.01108 89.21 2.62372 88.6351 1.60047 87.6131C0.577216 86.591 0.00163464 85.2053 0 83.7598V5.45182C0.00163551 4.00641 0.577216 2.62067 1.60047 1.59861C2.62372 0.576544 4.01108 0.00163361 5.45818 0H112.968C114.415 0.00163274 115.802 0.576544 116.825 1.59861C117.849 2.62067 118.424 4.00641 118.426 5.45182V83.7598C118.424 85.2053 117.849 86.591 116.825 87.6131C115.802 88.6351 114.415 89.21 112.968 89.2117Z" fill="#E6E6E6"/>
<path d="M105.402 89.0465H104.665L93.272 66.1224L92.9412 65.4615L84.5158 48.5047L70.2385 19.7753L69.911 19.1144L60.4932 0.165207H61.2342L70.6487 19.1144L70.9795 19.7753L84.8929 47.7745L85.2204 48.4353L93.6425 65.3789L105.402 89.0465Z" fill="white"/>
<path d="M118.261 19.1159H0.165413V19.7768H118.261V19.1159Z" fill="white"/>
<path d="M118.261 47.7761H84.6577V48.4369H118.261V47.7761Z" fill="white"/>
<path d="M32.2581 0.165237H31.5965V89.3769H32.2581V0.165237Z" fill="white"/>
<path d="M93.4764 65.4606H31.9273V66.1215H93.4764V65.4606Z" fill="white"/>
<path d="M70.4601 35.0239C70.4601 40.656 62.1677 56.5384 59.0532 62.3049C58.9401 62.5148 58.7722 62.6901 58.5674 62.8123C58.3625 62.9345 58.1284 62.9991 57.8898 62.9991C57.6512 62.9991 57.4171 62.9345 57.2122 62.8123C57.0074 62.6901 56.8395 62.5148 56.7264 62.3049C53.6119 56.5384 45.3194 40.656 45.3194 35.0239C45.3194 31.6939 46.6438 28.5003 49.0012 26.1456C51.3586 23.791 54.5559 22.4682 57.8898 22.4682C61.2237 22.4682 64.421 23.791 66.7784 26.1456C69.1358 28.5003 70.4601 31.6939 70.4601 35.0239Z" fill="#8A83F5"/>
<path d="M57.8898 40.6409C60.9956 40.6409 63.5134 38.1261 63.5134 35.0239C63.5134 31.9217 60.9956 29.4068 57.8898 29.4068C54.784 29.4068 52.2662 31.9217 52.2662 35.0239C52.2662 38.1261 54.784 40.6409 57.8898 40.6409Z" fill="#E6E6E6"/>
<path d="M57.8898 68.3957C59.1687 68.3957 60.2054 67.3601 60.2054 66.0828C60.2054 64.8054 59.1687 63.7699 57.8898 63.7699C56.6109 63.7699 55.5742 64.8054 55.5742 66.0828C55.5742 67.3601 56.6109 68.3957 57.8898 68.3957Z" fill="#8A83F5"/>
<path d="M57.9791 100.73C55.4447 100.73 52.9671 101.48 50.8597 102.886C48.7523 104.292 47.1097 106.291 46.1397 108.63C45.1696 110.969 44.9158 113.542 45.4101 116.025C45.9045 118.508 47.1249 120.788 48.917 122.578C50.7091 124.368 52.9924 125.587 55.4781 126.081C57.9638 126.575 60.5403 126.321 62.8817 125.353C65.2232 124.384 67.2244 122.743 68.6322 120.638C70.04 118.533 70.7913 116.058 70.791 113.527C70.787 110.134 69.4359 106.881 67.0341 104.482C64.6323 102.083 61.3758 100.734 57.9791 100.73ZM57.9791 125.62C55.5849 125.62 53.2443 124.911 51.2533 123.583C49.2624 122.255 47.7105 120.367 46.794 118.157C45.8774 115.948 45.6373 113.517 46.1041 111.171C46.5709 108.826 47.7235 106.671 49.4163 104.98C51.1091 103.288 53.2659 102.137 55.6141 101.67C57.9623 101.203 60.3964 101.442 62.6085 102.357C64.8206 103.272 66.7115 104.821 68.0419 106.809C69.3724 108.798 70.0827 111.135 70.083 113.527C70.0792 116.732 68.8029 119.806 66.5339 122.073C64.2649 124.34 61.1884 125.615 57.9791 125.62V125.62Z" fill="#E6E6E6"/>
<path d="M64.2842 107.391C63.9349 107.124 63.4938 107.006 63.0577 107.064C62.6216 107.121 62.2263 107.35 61.9586 107.698L56.2424 115.143L53.8243 113.292C53.6514 113.159 53.454 113.061 53.2433 113.005C53.0326 112.948 52.8127 112.933 52.5963 112.961C52.3799 112.99 52.1712 113.06 51.9822 113.169C51.7931 113.278 51.6275 113.423 51.4948 113.596C51.362 113.77 51.2647 113.967 51.2085 114.178C51.1523 114.388 51.1383 114.608 51.1673 114.824C51.1962 115.04 51.2676 115.248 51.3772 115.437C51.4869 115.625 51.6327 115.79 51.8064 115.922L55.5411 118.777L55.5577 118.79C55.8438 119.005 56.1922 119.121 56.5501 119.121C56.805 119.121 57.0566 119.063 57.2854 118.95C57.5142 118.838 57.7142 118.675 57.8699 118.473L64.5917 109.714C64.8591 109.365 64.9769 108.924 64.9192 108.489C64.8616 108.053 64.6332 107.658 64.2842 107.391Z" fill="#8A83F5"/>
<path d="M182.187 139.23L178.995 131.67L176.256 125.184L174.017 119.877C173.617 118.935 172.86 118.19 171.911 117.805C170.963 117.42 169.9 117.426 168.956 117.822L138.509 130.652C137.568 131.053 136.824 131.809 136.439 132.755C136.053 133.701 136.058 134.761 136.451 135.704L144.625 155.057C144.822 155.523 145.109 155.947 145.47 156.303C145.831 156.659 146.258 156.94 146.728 157.131C147.198 157.322 147.7 157.418 148.208 157.415C148.715 157.412 149.216 157.309 149.683 157.112L180.13 144.285C181.073 143.886 181.819 143.13 182.205 142.182C182.591 141.235 182.584 140.173 182.187 139.23ZM179.796 143.495L149.352 156.322C148.618 156.631 147.792 156.637 147.054 156.338C146.315 156.038 145.726 155.459 145.416 154.726L137.242 135.374C136.986 134.769 136.938 134.096 137.106 133.461C137.177 133.176 137.291 132.905 137.444 132.654C137.77 132.113 138.26 131.688 138.843 131.442L169.29 118.615C169.909 118.354 170.599 118.308 171.248 118.486C171.53 118.562 171.799 118.68 172.045 118.837C172.571 119.161 172.983 119.642 173.223 120.211L175.565 125.759V125.762L178.102 131.766L181.397 139.563C181.706 140.297 181.711 141.123 181.411 141.86C181.111 142.598 180.53 143.186 179.796 143.495L179.796 143.495Z" fill="#CCCCCC"/>
<path d="M159.083 137.362C158.27 137.707 157.371 137.793 156.507 137.61L136.724 133.378L136.904 132.54L156.687 136.772C157.369 136.915 158.079 136.85 158.724 136.584C159.369 136.318 159.919 135.864 160.302 135.282L171.543 118.035L172.263 118.503L161.021 135.75C160.55 136.468 159.875 137.03 159.083 137.362Z" fill="#CCCCCC"/>
<path d="M159.039 142.498C161.883 142.498 164.189 140.195 164.189 137.354C164.189 134.513 161.883 132.21 159.039 132.21C156.195 132.21 153.889 134.513 153.889 137.354C153.889 140.195 156.195 142.498 159.039 142.498Z" fill="#8A83F5"/>
<path d="M215.774 87.1697C215.774 87.1697 209.074 82.9431 202.726 87.8741L198.495 131.901C198.495 131.901 214.363 144.228 218.242 132.605L215.774 87.1697Z" fill="#8A83F5"/>
<path d="M217.409 187.238H221.465L222.815 171.671L217.409 171.614L217.409 187.238Z" fill="#FFB8B8"/>
<path d="M229.286 190.999L216.54 191L216.54 186.081L224.362 186.081C225.668 186.081 226.92 186.599 227.844 187.521C228.767 188.444 229.286 189.695 229.286 190.999Z" fill="#2F2E41"/>
<path d="M202.751 187.238H198.695L196.765 171.614H202.751L202.751 187.238Z" fill="#FFB8B8"/>
<path d="M195.798 186.081H203.619V191H190.873C190.873 189.695 191.392 188.444 192.316 187.522C193.239 186.599 194.492 186.081 195.798 186.081Z" fill="#2F2E41"/>
<path d="M226.176 132.077L222.65 184.557L217.184 184.381L209.955 142.291L203.255 183.852L196.908 184.205L195.145 129.964C195.145 129.964 221.945 123.976 226.176 132.077Z" fill="#2F2E41"/>
<path d="M209.537 82.7146C214.024 82.7146 217.662 79.0813 217.662 74.5994C217.662 70.1174 214.024 66.4841 209.537 66.4841C205.05 66.4841 201.412 70.1174 201.412 74.5994C201.412 79.0813 205.05 82.7146 209.537 82.7146Z" fill="#FFB8B8"/>
<path d="M214.539 85.5847L216.655 86.9936C216.655 86.9936 225.471 86.9936 226.176 92.2768C226.881 97.56 228.821 133.662 226.705 133.662C224.589 133.662 224.237 130.844 224.237 130.844C224.237 130.844 222.826 131.196 220.005 134.014C217.184 136.832 215.421 136.832 214.363 132.605C213.305 128.379 206.253 95.9751 212.953 89.9874L214.539 85.5847Z" fill="#2F2E41"/>
<path d="M204.313 85.5847L202.198 86.9936C202.198 86.9936 193.382 86.9936 192.677 92.2768C191.971 97.56 190.032 133.662 192.148 133.662C194.263 133.662 194.616 130.844 194.616 130.844C194.616 130.844 196.027 131.196 198.848 134.014C201.669 136.832 203.432 136.832 204.49 132.605C205.547 128.379 212.6 95.9751 205.9 89.9874L204.313 85.5847Z" fill="#2F2E41"/>
<path d="M216.129 79.5476C216.733 78.9119 217.134 78.111 217.281 77.2471C217.428 76.3831 217.314 75.4949 216.954 74.6956C216.595 73.8963 216.005 73.222 215.26 72.7584C214.516 72.2948 213.65 72.0629 212.773 72.0921C211.649 72.1296 210.591 72.5889 209.519 72.9259C207.894 73.4781 206.16 73.634 204.462 73.3807C202.755 73.1159 201.213 72.207 200.157 70.8413C199.151 69.4613 198.838 67.5472 199.548 65.995C200.368 64.203 202.283 63.2156 204.084 62.4134C204.811 62.0501 205.587 61.7954 206.388 61.6575C206.789 61.591 207.199 61.6079 207.593 61.7072C207.988 61.8064 208.357 61.9859 208.679 62.2344C209.185 62.6693 209.482 63.3231 210.033 63.7C210.653 64.1243 211.458 64.1131 212.206 64.1879C213.891 64.3564 215.484 65.0331 216.775 66.1282C218.065 67.2232 218.991 68.6847 219.429 70.3181C219.868 71.9516 219.798 73.6797 219.229 75.2725C218.66 76.8653 217.619 78.2474 216.245 79.235L216.129 79.5476Z" fill="#2F2E41"/>
<path d="M174.681 128.931C174.571 128.424 174.573 127.899 174.688 127.393C174.804 126.887 175.028 126.412 175.347 126.003C175.666 125.593 176.071 125.258 176.533 125.021C176.995 124.784 177.504 124.652 178.023 124.633L183.421 117.038L186.901 120.578L181.749 128.303C181.723 129.177 181.378 130.01 180.778 130.646C180.178 131.282 179.365 131.676 178.494 131.753C177.623 131.83 176.753 131.586 176.051 131.066C175.348 130.546 174.86 129.786 174.681 128.931Z" fill="#FFB8B8"/>
<path d="M222.526 135.864C222.146 135.51 221.848 135.077 221.654 134.596C221.459 134.115 221.373 133.597 221.4 133.079C221.428 132.561 221.569 132.055 221.814 131.597C222.058 131.139 222.4 130.74 222.816 130.429L222.911 121.116L227.791 122.04L227.972 131.32C228.45 132.052 228.642 132.934 228.513 133.798C228.383 134.662 227.941 135.448 227.269 136.008C226.598 136.569 225.744 136.863 224.87 136.837C223.996 136.81 223.162 136.464 222.526 135.864Z" fill="#FFB8B8"/>
<path d="M195.299 113.867L193.911 91.7485L193.517 90.2029C193.517 90.2029 179.481 108.231 179.448 121.794C179.448 121.794 186.324 125.14 187.382 122.674C187.798 121.706 189.217 120.271 195.299 113.867Z" fill="#2F2E41"/>
<path d="M224.942 91.7485L226.21 92.5514C226.21 92.5514 230.755 112.527 229.526 125.913C229.526 125.913 222.297 129.259 221.239 126.794C220.181 124.328 224.942 91.7485 224.942 91.7485Z" fill="#2F2E41"/>
<path d="M265.669 190.979H139.635C139.547 190.979 139.463 190.944 139.401 190.882C139.339 190.82 139.304 190.736 139.304 190.649C139.304 190.561 139.339 190.477 139.401 190.415C139.463 190.353 139.547 190.318 139.635 190.318H265.669C265.757 190.318 265.841 190.353 265.903 190.415C265.965 190.477 266 190.561 266 190.649C266 190.736 265.965 190.82 265.903 190.882C265.841 190.944 265.757 190.979 265.669 190.979Z" fill="#3F3D56"/>
</g>
<defs>
<clipPath id="clip0_14_36">
<rect width="266" height="191" fill="white"/>
</clipPath>
</defs>
</svg>
