<svg width="187" height="153" viewBox="0 0 187 153" fill="none" xmlns="http://www.w3.org/2000/svg">
<rect width="186.64" height="152.79" fill="#3F3D56"/>
<g clip-path="url(#clip0_69_3)">
<path d="M123.858 153L123.818 152.996L62.1423 147.162L6.05798 152.467C4.59364 152.606 3.13525 152.146 2.00362 151.19C0.871997 150.233 0.159838 148.858 0.0238144 147.367C0.00798236 147.194 6.0021e-05 147.02 4.62644e-05 146.845V11.0242C-0.0056146 9.61551 0.508401 8.25598 1.44033 7.21481C2.37225 6.17365 3.65414 5.52675 5.03219 5.40221L62.1423 0L62.1818 0.00381528L123.858 5.83781L179.942 0.532733C181.406 0.394216 182.865 0.853702 183.996 1.81011C185.128 2.76651 185.84 4.14149 185.976 5.63257C185.992 5.80617 186 5.98023 186 6.15476V141.976C186.006 143.384 185.492 144.744 184.56 145.785C183.628 146.826 182.346 147.473 180.968 147.598L123.858 153Z" fill="#3F3D56"/>
<path d="M85.9749 50.247C74.036 41.3932 61.4743 32.9976 48.6419 25.2947L47.9978 24.9081V51.0332H87.0349L85.9749 50.247ZM48.8508 50.1645V26.4305C61.0585 33.7837 73.0123 41.7624 84.4117 50.1645L48.8508 50.1645ZM146.397 103.937C141.233 98.4708 135.936 93.1293 130.506 87.9122C129.009 86.4724 127.502 85.0442 125.987 83.6276C116.737 74.9757 107.183 66.7473 97.3252 58.9423L97.21 58.8511H47.9978V104.673H147.092L146.397 103.937ZM48.8508 103.804V59.7198H96.9178C106.423 67.2489 115.672 75.1994 124.662 83.5711C126.223 85.0239 127.774 86.4884 129.314 87.9644C134.697 93.1155 139.954 98.3956 145.085 103.804H48.8508ZM146.397 103.937C141.233 98.4708 135.936 93.1293 130.506 87.9122C129.009 86.4724 127.502 85.0442 125.987 83.6276C116.737 74.9757 107.183 66.7473 97.3252 58.9423L97.21 58.8511H47.9978V104.673H147.092L146.397 103.937ZM48.8508 103.804V59.7198H96.9178C106.423 67.2489 115.672 75.1994 124.662 83.5711C126.223 85.0239 127.774 86.4884 129.314 87.9644C134.697 93.1155 139.954 98.3956 145.085 103.804H48.8508ZM85.9749 50.247C74.036 41.3932 61.4743 32.9976 48.6419 25.2947L47.9978 24.9081V51.0332H87.0349L85.9749 50.247ZM48.8508 50.1645V26.4305C61.0585 33.7837 73.0123 41.7624 84.4117 50.1645L48.8508 50.1645ZM85.9749 50.247C74.036 41.3932 61.4743 32.9976 48.6419 25.2947L47.9978 24.9081V51.0332H87.0349L85.9749 50.247ZM48.8508 50.1645V26.4305C61.0585 33.7837 73.0123 41.7624 84.4117 50.1645L48.8508 50.1645ZM146.397 103.937C141.233 98.4708 135.936 93.1293 130.506 87.9122C129.009 86.4724 127.502 85.0442 125.987 83.6276C116.737 74.9757 107.183 66.7473 97.3252 58.9423L97.21 58.8511H47.9978V104.673H147.092L146.397 103.937ZM48.8508 103.804V59.7198H96.9178C106.423 67.2489 115.672 75.1994 124.662 83.5711C126.223 85.0239 127.774 86.4884 129.314 87.9644C134.697 93.1155 139.954 98.3956 145.085 103.804H48.8508ZM5.77441 112.491V113.36H39.4669V125.955H5.77441V126.824H40.32V112.491H5.77441ZM47.9978 134.642V143.444L48.8509 143.363V135.511H180.226V134.642L47.9978 134.642ZM180.226 113.36V112.491H47.9978V126.824H180.226V125.955H48.8509V113.36L180.226 113.36ZM100.558 50.1645C84.1924 37.3092 66.9087 25.7131 48.8509 15.4723V6.67709L47.9978 6.75744V15.6207L48.6547 16.3562C66.6389 26.5691 83.8525 38.1296 100.153 50.942L100.268 51.0332H180.226V50.1645L100.558 50.1645ZM39.4669 50.1645H5.77441V51.0332H40.32V7.48278L39.4669 7.56312L39.4669 50.1645ZM180.226 58.8511H109.934L110.853 59.6199C119.507 66.8711 128.005 74.5616 136.345 82.6916C137.531 83.8469 138.713 85.0116 139.89 86.1858C145.75 92.0167 151.497 98.038 157.128 104.25L157.832 104.673H180.226V103.804H157.886C152.315 97.6543 146.623 91.6822 140.811 85.8883C139.649 84.7286 138.482 83.5769 137.311 82.4332C129.152 74.461 120.818 66.8899 112.31 59.7198H180.226V58.8511ZM5.77441 134.642V135.511H39.4669V144.249L40.32 144.169V134.642H5.77441ZM5.77441 58.8511V59.7198H39.4669V103.804H5.77441V104.673H40.32V58.8511H5.77441ZM85.9749 50.247C74.036 41.3932 61.4743 32.9976 48.6419 25.2947L47.9978 24.9081V51.0332H87.0349L85.9749 50.247ZM48.8508 50.1645V26.4305C61.0585 33.7837 73.0123 41.7624 84.4117 50.1645L48.8508 50.1645ZM146.397 103.937C141.233 98.4708 135.936 93.1293 130.506 87.9122C129.009 86.4724 127.502 85.0442 125.987 83.6276C116.737 74.9757 107.183 66.7473 97.3252 58.9423L97.21 58.8511H47.9978V104.673H147.092L146.397 103.937ZM48.8508 103.804V59.7198H96.9178C106.423 67.2489 115.672 75.1994 124.662 83.5711C126.223 85.0239 127.774 86.4884 129.314 87.9644C134.697 93.1155 139.954 98.3956 145.085 103.804H48.8508ZM85.9749 50.247C74.036 41.3932 61.4743 32.9976 48.6419 25.2947L47.9978 24.9081V51.0332H87.0349L85.9749 50.247ZM48.8508 50.1645V26.4305C61.0585 33.7837 73.0123 41.7624 84.4117 50.1645L48.8508 50.1645ZM146.397 103.937C141.233 98.4708 135.936 93.1293 130.506 87.9122C129.009 86.4724 127.502 85.0442 125.987 83.6276C116.737 74.9757 107.183 66.7473 97.3252 58.9423L97.21 58.8511H47.9978V104.673H147.092L146.397 103.937ZM48.8508 103.804V59.7198H96.9178C106.423 67.2489 115.672 75.1994 124.662 83.5711C126.223 85.0239 127.774 86.4884 129.314 87.9644C134.697 93.1155 139.954 98.3956 145.085 103.804H48.8508Z" fill="white"/>
<path d="M95.2646 57.1635C95.2646 68.1634 75.7047 92.6679 75.7047 92.6679C75.7047 92.6679 56.1448 68.1634 56.1448 57.1635C56.1448 51.8811 58.2055 46.8151 61.8737 43.08C65.5419 39.3448 70.5171 37.2464 75.7047 37.2464C80.8923 37.2464 85.8674 39.3448 89.5356 43.08C93.2038 46.8151 95.2646 51.8811 95.2646 57.1635V57.1635Z" fill="#6C63FF"/>
<path d="M84.6465 56.2975C84.6465 58.0983 84.1221 59.8586 83.1396 61.3559C82.1571 62.8533 80.7606 64.0203 79.1267 64.7094C77.4928 65.3985 75.6949 65.5788 73.9604 65.2275C72.2259 64.8762 70.6327 64.009 69.3821 62.7357C68.1316 61.4623 67.28 59.84 66.935 58.0738C66.59 56.3076 66.7671 54.4769 67.4438 52.8132C68.1206 51.1495 69.2667 49.7275 70.7371 48.727C72.2076 47.7265 73.9364 47.1925 75.7049 47.1925C76.8792 47.192 78.0422 47.4271 79.1273 47.8845C80.2124 48.3419 81.1984 49.0125 82.0288 49.8581C82.8592 50.7037 83.5178 51.7076 83.967 52.8125C84.4161 53.9174 84.6471 55.1017 84.6465 56.2975V56.2975Z" fill="white"/>
<path d="M75.7048 107.043C78.6168 107.043 80.9775 104.639 80.9775 101.674C80.9775 98.7086 78.6168 96.3049 75.7048 96.3049C72.7928 96.3049 70.4321 98.7086 70.4321 101.674C70.4321 104.639 72.7928 107.043 75.7048 107.043Z" fill="#6C63FF"/>
<path d="M126.224 34.274C130.53 34.274 134.02 30.72 134.02 26.336C134.02 21.952 130.53 18.398 126.224 18.398C121.919 18.398 118.428 21.952 118.428 26.336C118.428 30.72 121.919 34.274 126.224 34.274Z" fill="#FF6584"/>
<path d="M150.67 50.798H112.427C112.379 50.7986 112.332 50.7947 112.284 50.7864L130.372 18.8847C130.482 18.686 130.642 18.5207 130.836 18.4057C131.03 18.2907 131.25 18.2301 131.474 18.2301C131.698 18.2301 131.918 18.2907 132.112 18.4057C132.305 18.5207 132.466 18.686 132.576 18.8847L144.715 40.2932L145.296 41.3176L150.67 50.798Z" fill="white"/>
<path opacity="0.2" d="M150.67 50.798H137.613L144.023 41.3175L144.484 40.6347L144.715 40.2932L145.296 41.3175L150.67 50.798Z" fill="black"/>
<path d="M171.964 50.798H138.887L145.296 41.3177L145.758 40.6347L154.11 28.28C154.658 27.4703 155.975 27.4199 156.619 28.1273C156.662 28.1756 156.702 28.2266 156.739 28.28L171.964 50.798Z" fill="white"/>
<path d="M174.418 95.7687C176.597 95.7687 178.364 93.97 178.364 91.7512C178.364 89.5323 176.597 87.7336 174.418 87.7336C172.239 87.7336 170.473 89.5323 170.473 91.7512C170.473 93.97 172.239 95.7687 174.418 95.7687Z" fill="white"/>
<path d="M174.799 103.852H173.99L174.359 91.1461L174.799 103.852Z" fill="#CBCBCB"/>
<path d="M174.43 93.5543L175.298 92.3319L174.418 93.8568L174.323 93.6874L174.43 93.5543Z" fill="#CBCBCB"/>
<path d="M174.335 94.7884L173.467 93.5663L174.347 95.091L174.442 94.9216L174.335 94.7884Z" fill="#CBCBCB"/>
<path d="M163.199 91.9136C166.418 91.9136 169.027 89.257 169.027 85.98C169.027 82.7029 166.418 80.0464 163.199 80.0464C159.981 80.0464 157.372 82.7029 157.372 85.98C157.372 89.257 159.981 91.9136 163.199 91.9136Z" fill="white"/>
<path d="M163.761 103.852H162.568L163.112 85.0863L163.761 103.852Z" fill="#CBCBCB"/>
<path d="M163.217 88.6428L164.498 86.8379L163.199 89.0898L163.059 88.8395L163.217 88.6428Z" fill="#CBCBCB"/>
<path d="M163.077 90.4658L161.795 88.6609L163.094 90.9126L163.235 90.6625L163.077 90.4658Z" fill="#CBCBCB"/>
<path d="M27.9111 95.7687C30.0901 95.7687 31.8566 93.97 31.8566 91.7512C31.8566 89.5323 30.0901 87.7336 27.9111 87.7336C25.732 87.7336 23.9656 89.5323 23.9656 91.7512C23.9656 93.97 25.732 95.7687 27.9111 95.7687Z" fill="white"/>
<path d="M28.2915 103.852H27.4834L27.8517 91.1461L28.2915 103.852Z" fill="#CBCBCB"/>
<path d="M27.9229 93.5543L28.7906 92.3319L27.9111 93.8568L27.8162 93.6874L27.9229 93.5543Z" fill="#CBCBCB"/>
<path d="M27.8281 94.7884L26.9604 93.5663L27.84 95.091L27.9349 94.9216L27.8281 94.7884Z" fill="#CBCBCB"/>
<path d="M16.6924 91.9136C19.9107 91.9136 22.5196 89.257 22.5196 85.98C22.5196 82.7029 19.9107 80.0464 16.6924 80.0464C13.4741 80.0464 10.8652 82.7029 10.8652 85.98C10.8652 89.257 13.4741 91.9136 16.6924 91.9136Z" fill="white"/>
<path d="M17.254 103.852H16.0605L16.6048 85.0863L17.254 103.852Z" fill="#CBCBCB"/>
<path d="M16.7101 88.6428L17.9913 86.8379L16.6926 89.0898L16.5522 88.8395L16.7101 88.6428Z" fill="#CBCBCB"/>
<path d="M16.5697 90.4658L15.2883 88.6609L16.5873 90.9126L16.7276 90.6625L16.5697 90.4658Z" fill="#CBCBCB"/>
</g>
<defs>
<clipPath id="clip0_69_3">
<rect width="186" height="153" fill="white"/>
</clipPath>
</defs>
</svg>
