<svg width="30" height="30" viewBox="0 0 30 30" fill="none" xmlns="http://www.w3.org/2000/svg">
<path d="M29.3692 28.7854H27.978L18.8751 19.1384C18.8174 19.0773 18.7477 19.0288 18.6704 18.996C18.593 18.9631 18.5097 18.9465 18.4256 18.9474C18.3415 18.9482 18.2585 18.9664 18.1818 19.0009C18.1051 19.0353 18.0364 19.0852 17.98 19.1474L14.4414 23.0628L13.1418 21.1336H14.5422C14.6581 21.1313 14.771 21.0967 14.8681 21.0336C14.9653 20.9705 15.0427 20.8816 15.0916 20.7768C15.1412 20.6743 15.1604 20.5599 15.147 20.4469C15.1335 20.3339 15.088 20.2272 15.0158 20.1391L12.3236 16.8219H13.6211C13.7337 16.8196 13.8436 16.7867 13.9388 16.7268C14.0341 16.6668 14.1113 16.5821 14.1619 16.4818C14.2132 16.3824 14.2362 16.2709 14.2284 16.1593C14.2206 16.0478 14.1823 15.9406 14.1176 15.8492L11.7878 12.5708H12.2817C12.396 12.5701 12.5079 12.5375 12.6045 12.4767C12.7012 12.4158 12.7789 12.3293 12.8289 12.2267C12.8788 12.1242 12.899 12.0097 12.8872 11.8963C12.8753 11.7829 12.8319 11.6751 12.7618 11.585L8.50954 6.14678C8.4516 6.07261 8.37719 6.01288 8.29216 5.97228C8.20714 5.93168 8.11382 5.91132 8.01957 5.91282C7.92531 5.91432 7.83269 5.93762 7.74901 5.9809C7.66532 6.02417 7.59285 6.08624 7.53731 6.16221L3.56807 11.5996C3.50192 11.6906 3.46218 11.798 3.45321 11.9101C3.44425 12.0222 3.4664 12.1345 3.51725 12.2349C3.5681 12.3352 3.64567 12.4197 3.74146 12.4789C3.83725 12.5382 3.94756 12.57 4.06027 12.5708H4.53239L2.22291 15.8457C2.15875 15.9385 2.12096 16.0469 2.11355 16.1594C2.10613 16.2719 2.12936 16.3843 2.18078 16.4847C2.23165 16.5845 2.30882 16.6687 2.40401 16.7281C2.4992 16.7875 2.60881 16.8199 2.72108 16.8219H3.89089L1.19844 20.1336C1.12614 20.2235 1.08064 20.3319 1.06712 20.4464C1.05359 20.5609 1.0726 20.6769 1.12197 20.7812C1.17134 20.8854 1.24908 20.9737 1.34633 21.036C1.44358 21.0984 1.55643 21.1322 1.67201 21.1336H2.81235L0.0968254 25.3334C0.0377269 25.422 0.00435213 25.5251 0.000397463 25.6314C-0.0035572 25.7377 0.0220625 25.843 0.0744193 25.9357C0.127778 26.0293 0.20575 26.1067 0.299932 26.1594C0.394114 26.2121 0.500933 26.2382 0.608879 26.2348H7.45012V28.7854H3.9796C3.81812 28.7854 3.66325 28.8494 3.54907 28.9633C3.43489 29.0772 3.37074 29.2316 3.37074 29.3927C3.37074 29.5538 3.43489 29.7082 3.54907 29.8221C3.66325 29.936 3.81812 30 3.9796 30H29.3692C29.5306 30 29.6855 29.936 29.7997 29.8221C29.9139 29.7082 29.978 29.5538 29.978 29.3927C29.978 29.2316 29.9139 29.0772 29.7997 28.9633C29.6855 28.8494 29.5306 28.7854 29.3692 28.7854V28.7854ZM18.4407 20.4503L26.3058 28.7854H10.8859L13.1767 26.2348H15.4497C15.5591 26.2375 15.6671 26.21 15.7618 26.1554C15.8566 26.1008 15.9344 26.0212 15.9867 25.9254C16.039 25.8295 16.0639 25.7211 16.0584 25.6121C16.053 25.5032 16.0176 25.3978 15.956 25.3075L15.1388 24.0902L18.4407 20.4503ZM4.44002 20.8207C4.49908 20.7321 4.53242 20.629 4.53636 20.5227C4.5403 20.4163 4.5147 20.311 4.46237 20.2183C4.40902 20.1246 4.33105 20.0473 4.23687 19.9945C4.14269 19.9418 4.03586 19.9157 3.92791 19.919H2.94685L5.6393 16.5845C5.71145 16.4961 5.75684 16.3891 5.77013 16.2759C5.78342 16.1627 5.76407 16.0481 5.71435 15.9455C5.66462 15.8429 5.58658 15.7566 5.48939 15.6967C5.39221 15.6368 5.2799 15.6058 5.16566 15.6073H3.89314L6.20262 12.3175C6.26675 12.2263 6.3046 12.1192 6.31208 12.008C6.31957 11.8967 6.29639 11.7856 6.24507 11.6866C6.19374 11.5876 6.11623 11.5044 6.02092 11.4462C5.92561 11.388 5.81615 11.3569 5.70439 11.3563H5.25675L8.04607 7.53492L11.0346 11.3563H10.6094C10.4979 11.3556 10.3884 11.3855 10.2929 11.4429C10.1974 11.5003 10.1197 11.5829 10.0682 11.6815C10.0169 11.7822 9.99394 11.8949 10.0017 12.0076C10.0095 12.1202 10.0478 12.2287 10.1125 12.3214L12.4428 15.6073H11.0485C10.9345 15.605 10.8223 15.6352 10.725 15.6944C10.6276 15.7536 10.5493 15.8392 10.4991 15.9413C10.4496 16.0457 10.4304 16.1619 10.4438 16.2766C10.4572 16.3913 10.5026 16.5 10.5749 16.5902L13.2676 19.919H12.0029C11.8936 19.9168 11.7858 19.9445 11.6911 19.9991C11.5965 20.0537 11.5186 20.1331 11.466 20.2287C11.4141 20.3226 11.3894 20.4291 11.3947 20.5363C11.4001 20.6434 11.4354 20.7469 11.4965 20.8351L14.3108 25.0202H8.66784V21.7787L9.81737 20.7996C9.87806 20.7477 9.92791 20.6845 9.96407 20.6134C10.0002 20.5423 10.022 20.4648 10.0281 20.3854C10.0342 20.3059 10.0246 20.226 9.99969 20.1503C9.97483 20.0745 9.93524 20.0044 9.88319 19.9439C9.83281 19.8831 9.77077 19.8328 9.70071 19.7961C9.63064 19.7595 9.55395 19.7371 9.47512 19.7303C9.39628 19.7235 9.31688 19.7325 9.24155 19.7566C9.16622 19.7808 9.09647 19.8197 9.03638 19.8711L8.66784 20.1902V19.0425C8.66784 18.8814 8.60369 18.7269 8.48951 18.6131C8.37533 18.4992 8.22046 18.4352 8.05898 18.4352C7.8975 18.4352 7.74263 18.4992 7.62845 18.6131C7.51426 18.7269 7.45012 18.8814 7.45012 19.0425V22.1338L6.44281 21.5162C6.37496 21.4729 6.29916 21.4435 6.2198 21.4296C6.14045 21.4158 6.05914 21.4179 5.98058 21.4356C5.90203 21.4534 5.8278 21.4866 5.76221 21.5332C5.69662 21.5799 5.64098 21.6391 5.59852 21.7074C5.55606 21.7756 5.52763 21.8516 5.51488 21.931C5.50213 22.0103 5.50531 22.0914 5.52424 22.1695C5.54317 22.2476 5.57747 22.3211 5.62515 22.3859C5.67283 22.4506 5.73294 22.5053 5.80199 22.5467L7.45012 23.5653V25.0202H1.72444L4.44002 20.8207ZM8.66784 26.2348H11.5352L9.24437 28.7854H8.66784V26.2348ZM23.7615 9.15832C24.3437 9.15832 24.9127 8.98615 25.3967 8.66358C25.8807 8.34101 26.258 7.88252 26.4807 7.34611C26.7035 6.80969 26.7618 6.21944 26.6482 5.64998C26.5347 5.08052 26.2543 4.55745 25.8427 4.14689C25.4311 3.73634 24.9067 3.45674 24.3357 3.34347C23.7648 3.2302 23.173 3.28834 22.6352 3.51053C22.0974 3.73272 21.6377 4.10898 21.3143 4.59175C20.9909 5.07451 20.8183 5.64208 20.8183 6.22269C20.8192 7.001 21.1295 7.74719 21.6813 8.29754C22.2331 8.84788 22.9812 9.15745 23.7615 9.15832V9.15832ZM23.7615 4.50164C24.1028 4.50164 24.4364 4.60258 24.7202 4.79169C25.0039 4.9808 25.2251 5.24959 25.3557 5.56407C25.4863 5.87856 25.5205 6.2246 25.4539 6.55845C25.3873 6.8923 25.223 7.19897 24.9817 7.43966C24.7403 7.68035 24.4329 7.84427 24.0982 7.91068C23.7635 7.97708 23.4165 7.943 23.1012 7.81274C22.7859 7.68248 22.5164 7.46188 22.3268 7.17886C22.1372 6.89583 22.036 6.56308 22.036 6.22269C22.0365 5.7664 22.2185 5.32894 22.542 5.00629C22.8655 4.68364 23.3041 4.50215 23.7615 4.50164V4.50164Z" fill="white"/>
<path d="M23.1588 10.1246V11.838C23.1588 11.9991 23.223 12.1536 23.3372 12.2675C23.4513 12.3813 23.6062 12.4453 23.7677 12.4453C23.9292 12.4453 24.084 12.3813 24.1982 12.2675C24.3124 12.1536 24.3765 11.9991 24.3765 11.838V10.1246C24.3765 9.96351 24.3124 9.80905 24.1982 9.69516C24.084 9.58127 23.9292 9.51729 23.7677 9.51729C23.6062 9.51729 23.4513 9.58127 23.3372 9.69516C23.223 9.80905 23.1588 9.96351 23.1588 10.1246V10.1246ZM23.7677 2.92804C23.9292 2.92804 24.084 2.86405 24.1982 2.75017C24.3124 2.63628 24.3765 2.48181 24.3765 2.32075V0.607287C24.3765 0.446225 24.3124 0.291759 24.1982 0.17787C24.084 0.0639819 23.9292 0 23.7677 0C23.6062 0 23.4513 0.0639819 23.3372 0.17787C23.223 0.291759 23.1588 0.446225 23.1588 0.607287V2.32075C23.1588 2.48181 23.223 2.63628 23.3372 2.75017C23.4513 2.86405 23.6062 2.92804 23.7677 2.92804ZM29.3912 5.58704H27.6733C27.5118 5.58704 27.3569 5.65103 27.2428 5.76492C27.1286 5.8788 27.0644 6.03327 27.0644 6.19433C27.0644 6.35539 27.1286 6.50986 27.2428 6.62375C27.3569 6.73764 27.5118 6.80162 27.6733 6.80162H29.3912C29.5527 6.80162 29.7075 6.73764 29.8217 6.62375C29.9359 6.50986 30.0001 6.35539 30.0001 6.19433C30.0001 6.03327 29.9359 5.8788 29.8217 5.76492C29.7075 5.65103 29.5527 5.58704 29.3912 5.58704V5.58704ZM18.1313 6.80162H19.8493C20.0108 6.80162 20.1656 6.73764 20.2798 6.62375C20.394 6.50986 20.4582 6.35539 20.4582 6.19433C20.4582 6.03327 20.394 5.8788 20.2798 5.76492C20.1656 5.65103 20.0108 5.58704 19.8493 5.58704H18.1313C17.9698 5.58704 17.815 5.65103 17.7008 5.76492C17.5866 5.8788 17.5225 6.03327 17.5225 6.19433C17.5225 6.35539 17.5866 6.50986 17.7008 6.62375C17.815 6.73764 17.9698 6.80162 18.1313 6.80162V6.80162ZM26.0831 8.53846C25.9689 8.65235 25.9048 8.80681 25.9048 8.96788C25.9048 9.12894 25.9689 9.2834 26.0831 9.39729L27.2854 10.5964C27.3996 10.7103 27.5544 10.7743 27.7159 10.7743C27.8774 10.7743 28.0323 10.7104 28.1465 10.5965C28.2607 10.4826 28.3248 10.3281 28.3248 10.167C28.3248 10.006 28.2607 9.85151 28.1465 9.73761L26.9442 8.53846C26.8877 8.48206 26.8206 8.43732 26.7467 8.4068C26.6728 8.37628 26.5936 8.36057 26.5137 8.36057C26.4337 8.36057 26.3545 8.37628 26.2807 8.4068C26.2068 8.43732 26.1397 8.48206 26.0831 8.53846V8.53846ZM20.5783 3.9068C20.6925 4.0207 20.8473 4.08468 21.0088 4.08468C21.1703 4.08468 21.3252 4.0207 21.4394 3.9068C21.5536 3.79291 21.6177 3.63843 21.6177 3.47736C21.6177 3.31629 21.5536 3.16181 21.4394 3.04792L20.2371 1.84877C20.1229 1.73487 19.9681 1.67088 19.8066 1.67088C19.6451 1.67088 19.4902 1.73487 19.376 1.84877C19.2618 1.96266 19.1977 2.11714 19.1977 2.27821C19.1977 2.43928 19.2618 2.59376 19.376 2.70765L20.5783 3.9068ZM26.5137 4.08462C26.5936 4.08471 26.6728 4.06905 26.7467 4.03854C26.8206 4.00802 26.8877 3.96326 26.9442 3.9068L28.1464 2.70765C28.2606 2.59376 28.3248 2.43928 28.3248 2.27821C28.3248 2.11714 28.2606 1.96266 28.1464 1.84877C28.0322 1.73487 27.8774 1.67088 27.7159 1.67088C27.5544 1.67088 27.3995 1.73487 27.2853 1.84877L26.0831 3.04792C25.998 3.13285 25.94 3.24105 25.9165 3.35885C25.893 3.47666 25.9051 3.59876 25.9511 3.70973C25.9972 3.82069 26.0753 3.91554 26.1754 3.98227C26.2755 4.049 26.3932 4.08461 26.5137 4.08462V4.08462ZM20.6807 8.43662L19.3763 9.73773C19.2621 9.85163 19.1979 10.0061 19.1979 10.1672C19.1979 10.3282 19.2621 10.4827 19.3763 10.5966C19.4905 10.7105 19.6454 10.7745 19.8068 10.7744C19.9683 10.7744 20.1232 10.7105 20.2374 10.5966L21.5418 9.29538C21.5992 9.23919 21.6449 9.1722 21.6762 9.09829C21.7075 9.02439 21.7238 8.94502 21.7242 8.86479C21.7246 8.78455 21.709 8.70504 21.6784 8.63084C21.6478 8.55664 21.6028 8.48923 21.5459 8.4325C21.489 8.37577 21.4214 8.33084 21.347 8.30031C21.2726 8.26979 21.1929 8.25427 21.1125 8.25465C21.032 8.25503 20.9524 8.27131 20.8783 8.30255C20.8042 8.33378 20.7371 8.37935 20.6807 8.43662V8.43662Z" fill="white"/>
</svg>
